<?xml version="1.0" encoding="UTF-8" ?>
<!DOCTYPE svg PUBLIC "-//W3C//DTD SVG 1.1//EN" "http://www.w3.org/Graphics/SVG/1.1/DTD/svg11.dtd">
<svg width="657pt" height="251pt" viewBox="0 0 657 251" version="1.1" xmlns="http://www.w3.org/2000/svg">
<g id="#ffffffff">
</g>
<g id="#1f1a17ff">
<path fill="#1f1a17" opacity="1.00" d=" M 221.91 99.89 C 224.92 99.85 227.92 99.85 230.93 99.89 C 231.01 107.31 230.83 114.73 231.02 122.15 C 252.18 122.13 273.35 122.13 294.52 122.14 C 294.56 117.45 294.51 112.76 294.53 108.07 C 297.55 108.05 300.57 108.06 303.59 108.08 C 303.55 119.42 303.59 130.76 303.56 142.11 C 300.56 142.10 297.56 142.09 294.57 142.09 C 294.53 138.47 294.52 134.85 294.53 131.23 C 273.33 131.21 252.13 131.20 230.94 131.23 C 230.96 134.85 230.95 138.48 230.89 142.10 C 227.90 142.10 224.91 142.10 221.92 142.10 C 221.89 128.03 221.91 113.96 221.91 99.89 Z" />
<path fill="#1f1a17" opacity="1.00" d=" M 321.49 107.64 C 329.96 105.55 339.45 110.49 342.33 118.77 C 345.92 127.68 340.89 138.81 331.76 141.87 C 322.62 145.44 311.25 140.05 308.56 130.54 C 305.19 121.01 311.61 109.68 321.49 107.64 M 321.40 116.65 C 315.19 119.44 314.39 128.98 320.09 132.72 C 325.56 137.04 334.54 132.99 334.93 126.04 C 335.98 119.02 327.64 113.14 321.40 116.65 Z" />
<path fill="#1f1a17" opacity="1.00" d=" M 345.17 108.06 C 354.84 108.07 364.52 108.05 374.19 108.07 C 374.19 110.99 374.20 113.91 374.22 116.83 C 370.89 116.85 367.57 116.86 364.24 116.85 C 364.21 125.19 364.15 133.54 364.27 141.88 C 361.30 142.11 358.33 142.17 355.35 142.17 C 354.92 133.74 355.30 125.29 355.16 116.85 C 351.83 116.85 348.50 116.85 345.17 116.85 C 345.17 113.92 345.17 110.99 345.17 108.06 Z" />
<path fill="#1f1a17" opacity="1.00" d=" M 379.06 108.03 C 387.80 108.10 396.54 108.03 405.28 108.08 C 405.28 111.00 405.28 113.93 405.26 116.86 C 399.53 116.87 393.80 116.86 388.07 116.87 C 388.08 118.12 388.09 119.37 388.11 120.62 C 392.87 120.57 397.63 120.59 402.39 120.60 C 402.41 123.55 402.42 126.51 402.42 129.46 C 397.65 129.44 392.89 129.47 388.13 129.44 C 388.10 130.72 388.07 132.00 388.06 133.28 C 393.79 133.23 399.52 133.25 405.25 133.27 C 405.28 136.22 405.29 139.16 405.27 142.11 C 396.54 142.13 387.82 142.09 379.09 142.14 C 378.85 130.77 378.93 119.40 379.06 108.03 Z" />
<path fill="#1f1a17" opacity="1.00" d=" M 410.39 108.07 C 413.40 108.06 416.42 108.06 419.44 108.06 C 419.45 116.46 419.43 124.86 419.46 133.27 C 424.42 133.25 429.38 133.25 434.34 133.28 C 434.33 136.22 434.33 139.16 434.32 142.10 C 426.36 142.14 418.41 142.08 410.45 142.14 C 410.32 130.78 410.45 119.43 410.39 108.07 Z" />
<path fill="#1f1a17" opacity="1.00" d=" M 235.26 114.30 C 238.18 111.87 242.32 112.10 245.85 112.66 C 249.55 113.32 253.66 115.42 254.21 119.55 C 247.64 119.64 241.06 119.58 234.48 119.59 C 234.15 117.82 233.69 115.65 235.26 114.30 Z" />
</g>
</svg>
