<?xml version="1.0" encoding="UTF-8"?>
<svg width="214px" height="44px" viewBox="0 0 214 44" version="1.1" xmlns="http://www.w3.org/2000/svg" xmlns:xlink="http://www.w3.org/1999/xlink">
    <!-- Generator: Sketch 64 (93537) - https://sketch.com -->
    <title>hotel-logo</title>
    <desc>Created with Sketch.</desc>
    <g id="Page-1" stroke="none" stroke-width="1" fill="none" fill-rule="evenodd">
        <g id="hotel-logo" fill="#9A9DA0" fill-rule="nonzero">
            <path d="M0.91,0.89 C3.92,0.85 6.92,0.85 9.93,0.89 C10.01,8.31 9.83,15.73 10.02,23.15 C31.18,23.13 52.35,23.13 73.52,23.14 C73.56,18.45 73.51,13.76 73.53,9.07 C76.55,9.05 79.57,9.06 82.59,9.08 C82.55,20.42 82.59,31.76 82.56,43.11 C79.56,43.1 76.56,43.09 73.57,43.09 C73.53,39.47 73.52,35.85 73.53,32.23 C52.33,32.21 31.13,32.2 9.94,32.23 C9.96,35.85 9.95,39.48 9.89,43.1 C6.9,43.1 3.91,43.1 0.92,43.1 C0.89,29.03 0.91,14.96 0.91,0.89 Z" id="Path"></path>
            <path d="M100.49,8.64 C108.96,6.55 118.45,11.49 121.33,19.77 C124.92,28.68 119.89,39.81 110.76,42.87 C101.62,46.44 90.25,41.05 87.56,31.54 C84.19,22.01 90.61,10.68 100.49,8.64 M100.4,17.65 C94.19,20.44 93.39,29.98 99.09,33.72 C104.56,38.04 113.54,33.99 113.93,27.04 C114.98,20.02 106.64,14.14 100.4,17.65 Z" id="Shape"></path>
            <path d="M124.17,9.06 C133.84,9.07 143.52,9.05 153.19,9.07 C153.19,11.99 153.2,14.91 153.22,17.83 C149.89,17.85 146.57,17.86 143.24,17.85 C143.21,26.19 143.15,34.54 143.27,42.88 C140.3,43.11 137.33,43.17 134.35,43.17 C133.92,34.74 134.3,26.29 134.16,17.85 C130.83,17.85 127.5,17.85 124.17,17.85 C124.17,14.92 124.17,11.99 124.17,9.06 Z" id="Path"></path>
            <path d="M158.06,9.03 C166.8,9.1 175.54,9.03 184.28,9.08 C184.28,12 184.28,14.93 184.26,17.86 C178.53,17.87 172.8,17.86 167.07,17.87 C167.08,19.12 167.09,20.37 167.11,21.62 C171.87,21.57 176.63,21.59 181.39,21.6 C181.41,24.55 181.42,27.51 181.42,30.46 C176.65,30.44 171.89,30.47 167.13,30.44 C167.1,31.72 167.07,33 167.06,34.28 C172.79,34.23 178.52,34.25 184.25,34.27 C184.28,37.22 184.29,40.16 184.27,43.11 C175.54,43.13 166.82,43.09 158.09,43.14 C157.85,31.77 157.93,20.4 158.06,9.03 Z" id="Path"></path>
            <path d="M189.39,9.07 C192.4,9.06 195.42,9.06 198.44,9.06 C198.45,17.46 198.43,25.86 198.46,34.27 C203.42,34.25 208.38,34.25 213.34,34.28 C213.33,37.22 213.33,40.16 213.32,43.1 C205.36,43.14 197.41,43.08 189.45,43.14 C189.32,31.78 189.45,20.43 189.39,9.07 Z" id="Path"></path>
            <path d="M14.26,15.3 C17.18,12.87 21.32,13.1 24.85,13.66 C28.55,14.32 32.66,16.42 33.21,20.55 C26.64,20.64 20.06,20.58 13.48,20.59 C13.15,18.82 12.69,16.65 14.26,15.3 Z" id="Path"></path>
        </g>
    </g>
</svg>