<?xml version="1.0" encoding="UTF-8"?>
<svg width="168px" height="35px" viewBox="0 0 168 35" version="1.1" xmlns="http://www.w3.org/2000/svg" xmlns:xlink="http://www.w3.org/1999/xlink">
    <!-- Generator: Sketch 64 (93537) - https://sketch.com -->
    <title>hotel-logo</title>
    <desc>Created with Sketch.</desc>
    <g id="Page-1" stroke="none" stroke-width="1" fill="none" fill-rule="evenodd">
        <g id="hotel-logo" fill="#9A9DA0" fill-rule="nonzero">
            <path d="M0.00519657026,0.0241420118 C2.40032828,-0.00804733728 4.78750275,-0.00804733728 7.18263446,0.0241420118 C7.24629245,5.99526627 7.10306198,11.9663905 7.2542497,17.9375148 C24.0917869,17.9214201 40.9372814,17.9214201 57.7827759,17.9294675 C57.8146049,14.1552663 57.7748186,10.3810651 57.7907331,6.60686391 C60.1938221,6.59076923 62.596911,6.59881657 65,6.61491124 C64.968171,15.7405917 65,24.8662722 64.9761283,34 C62.5889538,33.9919527 60.2017793,33.9839053 57.8225621,33.9839053 C57.7907331,31.0707692 57.7827759,28.1576331 57.7907331,25.244497 C40.9213669,25.2284024 24.0520007,25.220355 7.19059171,25.244497 C7.20650621,28.1576331 7.19854896,31.0788166 7.15080547,33.9919527 C4.77158825,33.9919527 2.39237104,33.9919527 0.0131538185,33.9919527 C-0.0107179262,22.6693491 0.00519657026,11.3467456 0.00519657026,0.0241420118 Z" id="Path"></path>
            <path d="M78.8084819,7.37437914 C85.4254328,5.74053901 92.8392302,9.60234296 95.0891497,16.0751641 C97.8937369,23.0404826 93.9641899,31.7412676 86.8316325,34.1333972 C79.6912628,36.924215 70.8087679,32.7106273 68.7072806,25.2762638 C66.0745622,17.8262655 71.0900079,8.96913219 78.8084819,7.37437914 M78.7381719,14.4178718 C73.8867829,16.5989311 73.2618052,24.0567468 77.714771,26.9804607 C81.9880557,30.3575848 89.0034298,27.191531 89.3081064,21.7584262 C90.1283896,16.2705996 83.6129976,11.6739584 78.7381719,14.4178718 Z" id="Shape"></path>
            <path d="M98,7 C105.65611,7.00791557 113.320138,6.99208443 120.976248,7.00791557 C120.976248,9.31926121 120.984165,11.6306069 121,13.9419525 C118.363511,13.9577836 115.73494,13.9656992 113.098451,13.9577836 C113.074699,20.5593668 113.027194,27.1688654 113.122203,33.7704485 C110.77074,33.9525066 108.419277,34 106.059897,34 C105.719449,27.3271768 106.02031,20.6385224 105.909466,13.9577836 C103.272978,13.9577836 100.636489,13.9577836 98,13.9577836 C98,11.6385224 98,9.31926121 98,7 Z" id="Path"></path>
            <path d="M124.099141,7 C131.065986,7.05540897 138.032832,7 144.999677,7.03957784 C144.999677,9.35092348 144.999677,11.6701847 144.983735,13.9894459 C140.416226,13.9973615 135.848718,13.9894459 131.281209,13.9973615 C131.28918,14.9868074 131.297152,15.9762533 131.313094,16.9656992 C135.107394,16.9261214 138.901694,16.9419525 142.695995,16.9498681 C142.711937,19.2849604 142.719908,21.6279683 142.719908,23.9630607 C138.917637,23.9472296 135.123337,23.9709763 131.329036,23.9472296 C131.305123,24.9604222 131.281209,25.9736148 131.273238,26.9868074 C135.840746,26.9472296 140.408255,26.9630607 144.975763,26.9788918 C144.999677,29.3139842 145.007648,31.6411609 144.991706,33.9762533 C138.032832,33.9920844 131.081929,33.9604222 124.123054,34 C123.931745,25 123.995515,16 124.099141,7 Z" id="Path"></path>
            <path d="M149.000251,7.00792254 C151.388111,7 153.783904,7 156.179697,7 C156.18763,13.6549296 156.171764,20.3098592 156.195563,26.9727113 C160.130376,26.9568662 164.065188,26.9568662 168,26.9806338 C167.992067,29.3098592 167.992067,31.6390845 167.984134,33.9683099 C161.669395,34 155.362589,33.9524648 149.04785,34 C148.94472,25 149.04785,16.0079225 149.000251,7.00792254 Z" id="Path"></path>
            <path d="M9.8836309,11.6485404 C12.2129078,9.65359732 15.5153758,9.84241909 18.3312482,10.3021591 C21.2827293,10.8439954 24.5612663,12.5680203 25,15.9586025 C19.7591269,16.0324893 14.5102769,15.9832314 9.26142679,15.9914411 C8.99818659,14.5383344 8.6312457,12.7568421 9.8836309,11.6485404 Z" id="Path"></path>
        </g>
    </g>
</svg>